<svg xmlns="http://www.w3.org/2000/svg" xmlns:xlink="http://www.w3.org/1999/xlink" xmlns:inkscape="http://www.inkscape.org/namespaces/inkscape" version="1.1" width="841.89" height="385.775" viewBox="0 0 841.89 385.775">
<defs>
<clipPath id="clip_1">
<path transform="matrix(1,0,0,-1,0,385.775)" d="M0 385.775H841.89V0H0Z"/>
</clipPath>
</defs>
<g inkscape:groupmode="layer" inkscape:label="Calque 1">
<path transform="matrix(1,0,0,-1,213.1336,319.8156)" d="M0 0-3.646 8.976H-3.701L-7.402 0ZM-4.75 12.402H-2.347L6.021-7.154H2.928L.966-2.321H-8.34L-10.274-7.154H-13.368Z" fill="#165fad"/>
<g clip-path="url(#clip_1)">
<path transform="matrix(1,0,0,-1,243.8744,316.031)" d="M0 0V-9.64C-.48-9.936-1.022-10.193-1.63-10.414-2.238-10.633-2.869-10.823-3.522-10.979-4.175-11.137-4.838-11.252-5.51-11.324-6.183-11.399-6.813-11.435-7.402-11.435-9.06-11.435-10.537-11.16-11.835-10.606-13.133-10.055-14.228-9.308-15.121-8.371-16.014-7.431-16.696-6.341-17.165-5.097-17.635-3.855-17.87-2.543-17.87-1.161-17.87 .294-17.617 1.646-17.111 2.899-16.604 4.15-15.905 5.237-15.011 6.158-14.119 7.079-13.046 7.802-11.794 8.326-10.542 8.852-9.17 9.114-7.679 9.114-5.874 9.114-4.401 8.888-3.26 8.436-2.118 7.985-1.161 7.364-.387 6.571L-2.265 4.557C-3.076 5.329-3.931 5.869-4.833 6.171-5.736 6.476-6.684 6.628-7.679 6.628-8.802 6.628-9.815 6.42-10.717 6.007-11.619 5.591-12.392 5.036-13.036 4.336-13.681 3.636-14.179 2.811-14.528 1.863-14.878 .915-15.053-.093-15.053-1.161-15.053-2.265-14.859-3.292-14.472-4.241-14.086-5.189-13.552-6.013-12.871-6.713-12.189-7.413-11.389-7.96-10.467-8.355-9.547-8.752-8.544-8.949-7.457-8.949-6.518-8.949-5.631-8.863-4.792-8.687-3.955-8.513-3.242-8.26-2.652-7.928V-2.486H-6.988V0Z" fill="#165fad"/>
<path transform="matrix(1,0,0,-1,254.2312,307.4141)" d="M0 0H12.622V-2.486H2.651V-8.314H11.932V-10.801H2.651V-17.069H13.12V-19.555H0Z" fill="#165fad"/>
<path transform="matrix(1,0,0,-1,276.6293,307.4141)" d="M0 0H3.48L14.252-16.075H14.306V0H16.958V-19.555H13.588L2.706-3.482H2.651V-19.555H0Z" fill="#165fad"/>
<path transform="matrix(1,0,0,-1,317.754,311.6413)" d="M0 0C-.552 .718-1.252 1.271-2.099 1.657-2.947 2.044-3.821 2.238-4.723 2.238-5.828 2.238-6.826 2.03-7.719 1.617-8.612 1.201-9.377 .637-10.012-.081-10.647-.799-11.14-1.644-11.489-2.61-11.839-3.577-12.014-4.611-12.014-5.718-12.014-6.747-11.848-7.723-11.517-8.644-11.186-9.565-10.707-10.376-10.081-11.074-9.456-11.774-8.691-12.327-7.788-12.731-6.887-13.138-5.864-13.339-4.723-13.339-3.601-13.339-2.615-13.111-1.768-12.65-.921-12.189-.203-11.543 .386-10.715L2.624-12.402C2.476-12.602 2.219-12.894 1.851-13.271 1.481-13.648 .995-14.025 .386-14.402-.221-14.779-.953-15.111-1.809-15.398-2.666-15.683-3.656-15.825-4.778-15.825-6.325-15.825-7.719-15.531-8.962-14.942-10.206-14.353-11.265-13.578-12.138-12.621-13.013-11.663-13.681-10.581-14.141-9.376-14.602-8.17-14.831-6.95-14.831-5.718-14.831-4.207-14.583-2.811-14.086-1.533-13.588-.253-12.894 .851-12.001 1.782-11.108 2.712-10.035 3.435-8.783 3.949-7.531 4.464-6.15 4.724-4.64 4.724-3.351 4.724-2.085 4.476-.842 3.979 .401 3.48 1.417 2.717 2.21 1.685Z" fill="#165fad"/>
<path transform="matrix(1,0,0,-1,329.1055,307.4141)" d="M0 0H12.622V-2.486H2.651V-8.314H11.932V-10.801H2.651V-17.069H13.12V-19.555H0Z" fill="#165fad"/>
<path transform="matrix(1,0,0,-1,364.7057,307.4141)" d="M0 0H3.48L14.252-16.075H14.306V0H16.958V-19.555H13.588L2.706-3.482H2.651V-19.555H0Z" fill="#165fad"/>
<path transform="matrix(1,0,0,-1,403.0958,319.8156)" d="M0 0-3.646 8.976H-3.701L-7.402 0ZM-4.75 12.402H-2.347L6.021-7.154H2.928L.966-2.321H-8.34L-10.274-7.154H-13.368Z" fill="#165fad"/>
<path transform="matrix(1,0,0,-1,418.7275,309.9003)" d="M0 0H-6.297V2.486H8.949V0H2.652V-17.069H0Z" fill="#165fad"/>
<path transform="matrix(1,0,0,-1,0,385.775)" d="M436.018 78.361H438.669V58.806H436.018Z" fill="#165fad"/>
<path transform="matrix(1,0,0,-1,458.1959,324.9799)" d="M0 0C1.123 0 2.136 .205 3.038 .621 3.94 1.034 4.714 1.592 5.358 2.292 6.003 2.992 6.5 3.814 6.85 4.762 7.199 5.711 7.375 6.72 7.375 7.788 7.375 8.856 7.199 9.863 6.85 10.812 6.5 11.76 6.003 12.584 5.358 13.284 4.714 13.984 3.94 14.54 3.038 14.955 2.136 15.369 1.123 15.576 0 15.576-1.123 15.576-2.136 15.369-3.038 14.955-3.94 14.54-4.714 13.984-5.357 13.284-6.002 12.584-6.5 11.76-6.849 10.812-7.199 9.863-7.374 8.856-7.374 7.788-7.374 6.72-7.199 5.711-6.849 4.762-6.5 3.814-6.002 2.992-5.357 2.292-4.714 1.592-3.94 1.034-3.038 .621-2.136 .205-1.123 0 0 0M0-2.486C-1.491-2.486-2.863-2.224-4.115-1.7-5.368-1.174-6.44-.452-7.332 .47-8.226 1.389-8.925 2.475-9.432 3.728-9.938 4.979-10.191 6.334-10.191 7.788-10.191 9.242-9.938 10.595-9.432 11.848-8.925 13.099-8.226 14.185-7.332 15.107-6.44 16.028-5.368 16.751-4.115 17.275-2.863 17.801-1.491 18.063 0 18.063 1.491 18.063 2.863 17.801 4.115 17.275 5.368 16.751 6.44 16.028 7.333 15.107 8.226 14.185 8.925 13.099 9.432 11.848 9.938 10.595 10.192 9.242 10.192 7.788 10.192 6.334 9.938 4.979 9.432 3.728 8.925 2.475 8.226 1.389 7.333 .47 6.44-.452 5.368-1.174 4.115-1.7 2.863-2.224 1.491-2.486 0-2.486" fill="#165fad"/>
<path transform="matrix(1,0,0,-1,477.7217,307.4141)" d="M0 0H3.48L14.252-16.075H14.306V0H16.958V-19.555H13.588L2.706-3.482H2.651V-19.555H0Z" fill="#165fad"/>
<path transform="matrix(1,0,0,-1,516.1118,319.8156)" d="M0 0-3.646 8.976H-3.701L-7.402 0ZM-4.75 12.402H-2.347L6.021-7.154H2.928L.966-2.321H-8.34L-10.274-7.154H-13.368Z" fill="#165fad"/>
<path transform="matrix(1,0,0,-1,530.1979,307.4141)" d="M0 0H2.651V-17.069H11.628V-19.555H0Z" fill="#165fad"/>
<path transform="matrix(1,0,0,-1,550.0557,307.4141)" d="M0 0H12.622V-2.486H2.651V-8.314H11.932V-10.801H2.651V-17.069H13.12V-19.555H0Z" fill="#165fad"/>
<path transform="matrix(1,0,0,-1,587.8654,324.4831)" d="M0 0H3.342C4.464 0 5.528 .151 6.532 .456 7.535 .759 8.415 1.215 9.169 1.822 9.924 2.43 10.523 3.188 10.964 4.101 11.407 5.013 11.628 6.077 11.628 7.291 11.628 7.917 11.527 8.649 11.323 9.486 11.121 10.324 10.74 11.121 10.177 11.875 9.616 12.63 8.838 13.271 7.844 13.795 6.85 14.321 5.561 14.583 3.978 14.583H0ZM-2.651 17.069H4.171C5.552 17.069 6.762 16.911 7.803 16.599 8.843 16.285 9.745 15.868 10.509 15.342 11.272 14.818 11.908 14.215 12.415 13.533 12.921 12.851 13.322 12.151 13.616 11.433 13.911 10.715 14.122 9.997 14.251 9.279 14.38 8.56 14.445 7.899 14.445 7.291 14.445 6.038 14.215 4.828 13.754 3.658 13.294 2.491 12.613 1.45 11.711 .537 10.808-.373 9.69-1.104 8.355-1.657 7.019-2.211 5.478-2.486 3.728-2.486H-2.651Z" fill="#165fad"/>
<path transform="matrix(1,0,0,-1,613.9376,307.4141)" d="M0 0V-11.988C0-12.596 .084-13.226 .25-13.881 .414-14.533 .691-15.136 1.077-15.689 1.464-16.24 1.97-16.692 2.597-17.042 3.222-17.392 3.996-17.566 4.917-17.566 5.837-17.566 6.611-17.392 7.236-17.042 7.863-16.692 8.369-16.24 8.756-15.689 9.142-15.136 9.419-14.533 9.585-13.881 9.75-13.226 9.833-12.596 9.833-11.988V0H12.484V-12.402C12.484-13.544 12.291-14.578 11.905-15.509 11.517-16.439 10.983-17.245 10.303-17.925 9.621-18.607 8.82-19.133 7.9-19.501 6.979-19.869 5.984-20.052 4.917-20.052 3.849-20.052 2.854-19.869 1.934-19.501 1.013-19.133 .212-18.607-.469-17.925-1.151-17.245-1.685-16.439-2.071-15.509-2.458-14.578-2.651-13.544-2.651-12.402V0Z" fill="#165fad"/>
<path transform="matrix(1,0,0,-1,650.3958,322.88209)" d="M0 0C.479-.718 1.091-1.246 1.836-1.587 2.582-1.928 3.351-2.098 4.143-2.098 4.584-2.098 5.036-2.03 5.496-1.892 5.956-1.752 6.375-1.547 6.753-1.269 7.13-.994 7.438-.653 7.678-.248 7.917 .156 8.037 .626 8.037 1.161 8.037 1.915 7.797 2.491 7.319 2.886 6.84 3.283 6.246 3.613 5.537 3.882 4.828 4.148 4.054 4.406 3.218 4.654 2.379 4.902 1.606 5.248 .898 5.69 .189 6.131-.405 6.725-.884 7.472-1.363 8.217-1.602 9.224-1.602 10.496-1.602 11.067-1.478 11.674-1.23 12.318-.981 12.964-.589 13.551-.055 14.086 .479 14.619 1.164 15.066 2.002 15.425 2.84 15.784 3.848 15.965 5.027 15.965 6.094 15.965 7.116 15.816 8.092 15.522 9.067 15.229 9.924 14.628 10.661 13.727L8.506 11.767C8.175 12.282 7.706 12.695 7.098 13.009 6.49 13.323 5.8 13.479 5.027 13.479 4.289 13.479 3.677 13.382 3.19 13.19 2.702 12.995 2.31 12.747 2.015 12.442 1.721 12.14 1.514 11.812 1.394 11.462 1.275 11.112 1.215 10.789 1.215 10.496 1.215 9.667 1.454 9.032 1.933 8.59 2.412 8.147 3.006 7.788 3.715 7.513 4.424 7.237 5.196 6.989 6.035 6.768 6.873 6.546 7.646 6.237 8.355 5.842 9.063 5.447 9.657 4.911 10.135 4.241 10.614 3.568 10.854 2.642 10.854 1.463 10.854 .526 10.674-.323 10.315-1.077 9.956-1.831 9.473-2.468 8.865-2.983 8.258-3.498 7.54-3.893 6.711-4.171 5.882-4.446 4.998-4.584 4.06-4.584 2.807-4.584 1.62-4.363 .497-3.922-.627-3.48-1.52-2.798-2.182-1.879Z" fill="#165fad"/>
<path transform="matrix(1,0,0,-1,670.6951,307.4141)" d="M0 0H12.622V-2.486H2.651V-8.314H11.932V-10.801H2.651V-17.069H13.12V-19.555H0Z" fill="#165fad"/>
<path transform="matrix(1,0,0,-1,695.7454,316.031)" d="M0 0H3.481C3.996 0 4.507 .041 5.013 .124 5.52 .205 5.97 .359 6.367 .578 6.762 .799 7.08 1.118 7.32 1.531 7.559 1.946 7.679 2.484 7.679 3.148 7.679 3.809 7.559 4.349 7.32 4.762 7.08 5.178 6.762 5.494 6.367 5.715 5.97 5.937 5.52 6.088 5.013 6.171 4.507 6.255 3.996 6.296 3.481 6.296H0ZM-2.651 8.617H4.226C5.478 8.617 6.509 8.445 7.32 8.104 8.129 7.763 8.769 7.332 9.239 6.806 9.709 6.282 10.035 5.693 10.219 5.04 10.403 4.385 10.496 3.755 10.496 3.148 10.496 2.522 10.385 1.919 10.164 1.339 9.944 .759 9.625 .233 9.212-.235 8.798-.705 8.291-1.102 7.692-1.423 7.094-1.746 6.427-1.944 5.69-2.016L11.241-10.938H7.927L2.956-2.321H0V-10.938H-2.651Z" fill="#165fad"/>
<path transform="matrix(1,0,0,-1,712.8133,307.4141)" d="M0 0H3.067L8.811-15.911H8.866L14.831 0H17.732L10.026-19.555H7.54Z" fill="#165fad"/>
<path transform="matrix(1,0,0,-1,0,385.775)" d="M738.417 78.361H741.068V58.806H738.417Z" fill="#165fad"/>
<path transform="matrix(1,0,0,-1,765.2341,311.6413)" d="M0 0C-.552 .718-1.252 1.271-2.099 1.657-2.947 2.044-3.821 2.238-4.723 2.238-5.828 2.238-6.826 2.03-7.719 1.617-8.612 1.201-9.377 .637-10.012-.081-10.647-.799-11.14-1.644-11.489-2.61-11.839-3.577-12.014-4.611-12.014-5.718-12.014-6.747-11.848-7.723-11.517-8.644-11.186-9.565-10.707-10.376-10.081-11.074-9.456-11.774-8.691-12.327-7.788-12.731-6.887-13.138-5.864-13.339-4.723-13.339-3.601-13.339-2.615-13.111-1.768-12.65-.921-12.189-.203-11.543 .386-10.715L2.624-12.402C2.476-12.602 2.219-12.894 1.851-13.271 1.481-13.648 .995-14.025 .386-14.402-.221-14.779-.953-15.111-1.809-15.398-2.666-15.683-3.656-15.825-4.778-15.825-6.325-15.825-7.719-15.531-8.962-14.942-10.206-14.353-11.265-13.578-12.138-12.621-13.013-11.663-13.681-10.581-14.141-9.376-14.602-8.17-14.831-6.95-14.831-5.718-14.831-4.207-14.583-2.811-14.086-1.533-13.588-.253-12.894 .851-12.001 1.782-11.108 2.712-10.035 3.435-8.783 3.949-7.531 4.464-6.15 4.724-4.64 4.724-3.351 4.724-2.085 4.476-.842 3.979 .401 3.48 1.417 2.717 2.21 1.685Z" fill="#165fad"/>
<path transform="matrix(1,0,0,-1,776.5856,307.4141)" d="M0 0H12.622V-2.486H2.651V-8.314H11.932V-10.801H2.651V-17.069H13.12V-19.555H0Z" fill="#165fad"/>
<path transform="matrix(1,0,0,-1,203.0399,337.0834)" d="M0 0V-11.988C0-12.596 .084-13.226 .25-13.881 .414-14.533 .691-15.136 1.077-15.689 1.464-16.24 1.97-16.692 2.597-17.042 3.222-17.392 3.996-17.566 4.917-17.566 5.837-17.566 6.611-17.392 7.236-17.042 7.863-16.692 8.369-16.24 8.756-15.689 9.142-15.136 9.419-14.533 9.585-13.881 9.751-13.226 9.833-12.596 9.833-11.988V0H12.484V-12.402C12.484-13.544 12.291-14.578 11.905-15.509 11.517-16.439 10.983-17.245 10.303-17.925 9.621-18.607 8.82-19.133 7.9-19.501 6.979-19.869 5.984-20.052 4.917-20.052 3.849-20.052 2.854-19.869 1.934-19.501 1.013-19.133 .212-18.607-.469-17.925-1.15-17.245-1.685-16.439-2.071-15.509-2.458-14.578-2.651-13.544-2.651-12.402V0Z" fill="#165fad"/>
<path transform="matrix(1,0,0,-1,220.2467,337.0834)" d="M0 0H3.48L14.252-16.075H14.306V0H16.958V-19.555H13.588L2.706-3.482H2.651V-19.555H0Z" fill="#165fad"/>
<path transform="matrix(1,0,0,-1,0,385.775)" d="M242.287 48.692H244.938V29.137001H242.287Z" fill="#165fad"/>
<path transform="matrix(1,0,0,-1,247.3406,337.0834)" d="M0 0H3.067L8.811-15.911H8.866L14.831 0H17.732L10.026-19.555H7.54Z" fill="#165fad"/>
<path transform="matrix(1,0,0,-1,267.475,337.0834)" d="M0 0H12.622V-2.486H2.651V-8.314H11.932V-10.801H2.651V-17.069H13.12V-19.555H0Z" fill="#165fad"/>
<path transform="matrix(1,0,0,-1,287.0562,345.7003)" d="M0 0H3.481C3.996 0 4.507 .041 5.013 .124 5.52 .205 5.97 .359 6.367 .578 6.762 .799 7.08 1.118 7.32 1.531 7.559 1.946 7.679 2.484 7.679 3.148 7.679 3.809 7.559 4.349 7.32 4.762 7.08 5.178 6.762 5.494 6.367 5.715 5.97 5.937 5.52 6.088 5.013 6.171 4.507 6.255 3.996 6.296 3.481 6.296H0ZM-2.651 8.617H4.226C5.478 8.617 6.509 8.445 7.32 8.104 8.129 7.763 8.769 7.332 9.239 6.806 9.709 6.282 10.035 5.693 10.219 5.04 10.403 4.385 10.496 3.755 10.496 3.148 10.496 2.522 10.385 1.919 10.164 1.339 9.944 .759 9.625 .233 9.212-.235 8.798-.705 8.291-1.102 7.692-1.423 7.094-1.746 6.427-1.944 5.69-2.016L11.241-10.938H7.927L2.956-2.321H0V-10.938H-2.651Z" fill="#165fad"/>
<path transform="matrix(1,0,0,-1,301.9156,352.5514)" d="M0 0C.479-.718 1.091-1.246 1.836-1.587 2.582-1.928 3.351-2.098 4.143-2.098 4.584-2.098 5.036-2.03 5.496-1.892 5.956-1.752 6.375-1.547 6.753-1.269 7.13-.994 7.438-.653 7.678-.248 7.917 .156 8.037 .625 8.037 1.161 8.037 1.915 7.797 2.491 7.319 2.886 6.84 3.283 6.246 3.613 5.537 3.882 4.828 4.148 4.054 4.406 3.218 4.654 2.379 4.902 1.606 5.248 .898 5.69 .189 6.131-.405 6.725-.884 7.472-1.363 8.217-1.602 9.224-1.602 10.496-1.602 11.067-1.478 11.674-1.23 12.318-.981 12.964-.589 13.551-.055 14.086 .479 14.619 1.164 15.066 2.002 15.425 2.84 15.784 3.848 15.965 5.027 15.965 6.094 15.965 7.116 15.816 8.092 15.522 9.067 15.229 9.924 14.628 10.661 13.727L8.506 11.767C8.175 12.282 7.706 12.695 7.098 13.009 6.49 13.323 5.8 13.479 5.027 13.479 4.289 13.479 3.677 13.382 3.19 13.19 2.702 12.995 2.31 12.747 2.015 12.442 1.721 12.14 1.514 11.812 1.394 11.462 1.275 11.112 1.215 10.789 1.215 10.496 1.215 9.667 1.454 9.032 1.933 8.59 2.412 8.147 3.006 7.788 3.715 7.513 4.424 7.237 5.196 6.989 6.035 6.768 6.873 6.546 7.646 6.237 8.355 5.842 9.063 5.447 9.657 4.911 10.136 4.241 10.614 3.568 10.854 2.642 10.854 1.463 10.854 .526 10.674-.323 10.315-1.077 9.956-1.831 9.473-2.468 8.865-2.983 8.258-3.498 7.54-3.893 6.711-4.171 5.882-4.446 4.998-4.584 4.06-4.584 2.807-4.584 1.62-4.363 .497-3.922-.627-3.48-1.52-2.798-2.182-1.879Z" fill="#165fad"/>
<path transform="matrix(1,0,0,-1,316.7469,337.0834)" d="M0 0H12.622V-2.486H2.651V-8.314H11.932V-10.801H2.651V-17.069H13.12V-19.555H0Z" fill="#165fad"/>
<path transform="matrix(1,0,0,-1,333.677,337.0834)" d="M0 0H2.651V-17.069H11.628V-19.555H0Z" fill="#165fad"/>
<path transform="matrix(1,0,0,-1,358.0093,354.1524)" d="M0 0H3.342C4.464 0 5.528 .151 6.532 .456 7.535 .759 8.415 1.215 9.169 1.822 9.924 2.43 10.523 3.188 10.964 4.101 11.407 5.013 11.628 6.077 11.628 7.291 11.628 7.917 11.527 8.649 11.323 9.486 11.121 10.324 10.74 11.121 10.177 11.875 9.616 12.63 8.838 13.271 7.844 13.795 6.85 14.321 5.561 14.583 3.978 14.583H0ZM-2.651 17.069H4.171C5.552 17.069 6.762 16.911 7.803 16.599 8.843 16.285 9.745 15.868 10.509 15.342 11.272 14.818 11.908 14.215 12.415 13.533 12.921 12.851 13.322 12.151 13.616 11.433 13.911 10.715 14.122 9.997 14.251 9.279 14.38 8.56 14.445 7.899 14.445 7.291 14.445 6.038 14.215 4.828 13.754 3.658 13.293 2.491 12.613 1.45 11.711 .537 10.808-.373 9.69-1.104 8.355-1.657 7.019-2.211 5.478-2.486 3.728-2.486H-2.651Z" fill="#165fad"/>
<path transform="matrix(1,0,0,-1,376.3203,337.0834)" d="M0 0H12.622V-2.486H2.651V-8.314H11.932V-10.801H2.651V-17.069H13.12V-19.555H0Z" fill="#165fad"/>
<path transform="matrix(1,0,0,-1,393.8308,352.5514)" d="M0 0C.479-.718 1.091-1.246 1.836-1.587 2.582-1.928 3.351-2.098 4.142-2.098 4.584-2.098 5.036-2.03 5.496-1.892 5.956-1.752 6.375-1.547 6.753-1.269 7.13-.994 7.438-.653 7.678-.248 7.917 .156 8.037 .625 8.037 1.161 8.037 1.915 7.797 2.491 7.319 2.886 6.84 3.283 6.246 3.613 5.537 3.882 4.828 4.148 4.054 4.406 3.218 4.654 2.379 4.902 1.605 5.248 .898 5.69 .189 6.131-.405 6.725-.884 7.472-1.363 8.217-1.602 9.224-1.602 10.496-1.602 11.067-1.478 11.674-1.23 12.318-.981 12.964-.589 13.551-.055 14.086 .479 14.619 1.164 15.066 2.002 15.425 2.84 15.784 3.848 15.965 5.027 15.965 6.093 15.965 7.116 15.816 8.092 15.522 9.067 15.229 9.924 14.628 10.661 13.727L8.506 11.767C8.175 12.282 7.706 12.695 7.098 13.009 6.49 13.323 5.8 13.479 5.027 13.479 4.289 13.479 3.677 13.382 3.19 13.19 2.702 12.995 2.31 12.747 2.015 12.442 1.721 12.14 1.514 11.812 1.394 11.462 1.275 11.112 1.215 10.789 1.215 10.496 1.215 9.667 1.454 9.032 1.933 8.59 2.412 8.147 3.006 7.788 3.715 7.513 4.424 7.237 5.196 6.989 6.035 6.768 6.873 6.546 7.646 6.237 8.355 5.842 9.063 5.447 9.657 4.911 10.135 4.241 10.614 3.568 10.854 2.642 10.854 1.463 10.854 .526 10.674-.323 10.315-1.077 9.956-1.831 9.473-2.468 8.865-2.983 8.258-3.498 7.54-3.893 6.711-4.171 5.882-4.446 4.998-4.584 4.06-4.584 2.807-4.584 1.62-4.363 .497-3.922-.627-3.48-1.52-2.798-2.182-1.879Z" fill="#165fad"/>
<path transform="matrix(1,0,0,-1,420.4821,339.5695)" d="M0 0H-6.297V2.486H8.949V0H2.652V-17.069H0Z" fill="#165fad"/>
<path transform="matrix(1,0,0,-1,439.291,332.0026)" d="M0 0H3.535L-.58-3.977H-2.872ZM-6.988-5.081H5.634V-7.567H-4.337V-13.395H4.944V-15.881H-4.337V-22.15H6.132V-24.636H-6.988Z" fill="#165fad"/>
<path transform="matrix(1,0,0,-1,449.2334,337.0834)" d="M0 0H2.651V-17.069H11.628V-19.555H0Z" fill="#165fad"/>
<path transform="matrix(1,0,0,-1,470.6109,332.0026)" d="M0 0H3.535L-.58-3.977H-2.872ZM-6.988-5.081H5.634V-7.567H-4.337V-13.395H4.944V-15.881H-4.337V-22.15H6.132V-24.636H-6.988Z" fill="#165fad"/>
<path transform="matrix(1,0,0,-1,494.1698,341.3105)" d="M0 0C-.552 .718-1.252 1.271-2.099 1.657-2.947 2.044-3.821 2.238-4.723 2.238-5.828 2.238-6.826 2.03-7.719 1.617-8.612 1.201-9.377 .637-10.012-.081-10.647-.799-11.14-1.644-11.489-2.61-11.839-3.577-12.014-4.611-12.014-5.718-12.014-6.747-11.848-7.723-11.517-8.644-11.186-9.565-10.707-10.376-10.081-11.074-9.456-11.774-8.691-12.327-7.788-12.731-6.887-13.138-5.864-13.339-4.723-13.339-3.601-13.339-2.615-13.111-1.768-12.65-.921-12.189-.203-11.543 .386-10.715L2.624-12.402C2.476-12.603 2.219-12.894 1.851-13.271 1.481-13.648 .995-14.025 .386-14.402-.221-14.779-.953-15.111-1.809-15.398-2.666-15.683-3.656-15.825-4.778-15.825-6.325-15.825-7.719-15.531-8.962-14.942-10.206-14.353-11.265-13.578-12.138-12.621-13.013-11.663-13.681-10.581-14.141-9.376-14.602-8.17-14.831-6.95-14.831-5.718-14.831-4.207-14.583-2.811-14.086-1.533-13.588-.253-12.894 .851-12.001 1.782-11.108 2.712-10.035 3.435-8.783 3.949-7.531 4.464-6.15 4.724-4.64 4.724-3.351 4.724-2.085 4.476-.842 3.979 .401 3.48 1.417 2.716 2.21 1.685Z" fill="#165fad"/>
<path transform="matrix(1,0,0,-1,509.0281,354.6492)" d="M0 0C1.123 0 2.136 .205 3.038 .621 3.94 1.034 4.714 1.592 5.358 2.292 6.003 2.992 6.5 3.814 6.85 4.762 7.199 5.711 7.375 6.72 7.375 7.788 7.375 8.856 7.199 9.863 6.85 10.812 6.5 11.76 6.003 12.584 5.358 13.284 4.714 13.984 3.94 14.54 3.038 14.955 2.136 15.369 1.123 15.576 0 15.576-1.123 15.576-2.136 15.369-3.038 14.955-3.94 14.54-4.714 13.984-5.357 13.284-6.002 12.584-6.5 11.76-6.849 10.812-7.199 9.863-7.374 8.856-7.374 7.788-7.374 6.72-7.199 5.711-6.849 4.762-6.5 3.814-6.002 2.992-5.357 2.292-4.714 1.592-3.94 1.034-3.038 .621-2.136 .205-1.123 0 0 0M0-2.486C-1.491-2.486-2.863-2.224-4.115-1.7-5.367-1.174-6.44-.452-7.332 .47-8.226 1.389-8.925 2.475-9.432 3.728-9.938 4.979-10.191 6.334-10.191 7.788-10.191 9.242-9.938 10.595-9.432 11.848-8.925 13.099-8.226 14.185-7.332 15.107-6.44 16.028-5.367 16.751-4.115 17.275-2.863 17.801-1.491 18.063 0 18.063 1.491 18.063 2.863 17.801 4.115 17.275 5.368 16.751 6.44 16.028 7.333 15.107 8.226 14.185 8.925 13.099 9.432 11.848 9.938 10.595 10.192 9.242 10.192 7.788 10.192 6.334 9.938 4.979 9.432 3.728 8.925 2.475 8.226 1.389 7.333 .47 6.44-.452 5.368-1.174 4.115-1.7 2.863-2.224 1.491-2.486 0-2.486" fill="#165fad"/>
<path transform="matrix(1,0,0,-1,522.8929,337.0834)" d="M0 0H3.949L10.164-14.804H10.274L16.433 0H20.383V-19.555H17.732V-3.482H17.677L11.075-19.555H9.308L2.706-3.482H2.651V-19.555H0Z" fill="#165fad"/>
<path transform="matrix(1,0,0,-1,547.9714,337.0834)" d="M0 0H3.949L10.164-14.804H10.274L16.433 0H20.383V-19.555H17.732V-3.482H17.676L11.075-19.555H9.308L2.706-3.482H2.651V-19.555H0Z" fill="#165fad"/>
<path transform="matrix(1,0,0,-1,575.5339,337.0834)" d="M0 0V-11.988C0-12.596 .084-13.226 .25-13.881 .414-14.533 .691-15.136 1.077-15.689 1.464-16.24 1.97-16.692 2.597-17.042 3.222-17.392 3.996-17.566 4.917-17.566 5.837-17.566 6.611-17.392 7.236-17.042 7.863-16.692 8.369-16.24 8.756-15.689 9.142-15.136 9.419-14.533 9.585-13.881 9.751-13.226 9.833-12.596 9.833-11.988V0H12.484V-12.402C12.484-13.544 12.291-14.578 11.905-15.509 11.518-16.439 10.983-17.245 10.303-17.925 9.621-18.607 8.82-19.133 7.9-19.501 6.979-19.869 5.984-20.052 4.917-20.052 3.849-20.052 2.854-19.869 1.934-19.501 1.013-19.133 .212-18.607-.469-17.925-1.15-17.245-1.685-16.439-2.071-15.509-2.458-14.578-2.651-13.544-2.651-12.402V0Z" fill="#165fad"/>
<path transform="matrix(1,0,0,-1,592.7407,337.0834)" d="M0 0H3.48L14.252-16.075H14.306V0H16.958V-19.555H13.588L2.706-3.482H2.651V-19.555H0Z" fill="#165fad"/>
<path transform="matrix(1,0,0,-1,0,385.775)" d="M614.781 48.692H617.432V29.137001H614.781Z" fill="#165fad"/>
<path transform="matrix(1,0,0,-1,636.1302,341.3105)" d="M0 0C-.552 .718-1.252 1.271-2.099 1.657-2.947 2.044-3.821 2.238-4.723 2.238-5.828 2.238-6.826 2.03-7.719 1.617-8.612 1.201-9.377 .637-10.012-.081-10.647-.799-11.14-1.644-11.489-2.61-11.839-3.577-12.014-4.611-12.014-5.718-12.014-6.747-11.848-7.723-11.518-8.644-11.186-9.565-10.707-10.376-10.081-11.074-9.456-11.774-8.691-12.327-7.788-12.731-6.887-13.138-5.864-13.339-4.723-13.339-3.601-13.339-2.615-13.111-1.768-12.65-.921-12.189-.203-11.543 .386-10.715L2.624-12.402C2.476-12.603 2.219-12.894 1.85-13.271 1.481-13.648 .995-14.025 .386-14.402-.221-14.779-.953-15.111-1.809-15.398-2.666-15.683-3.656-15.825-4.778-15.825-6.325-15.825-7.719-15.531-8.962-14.942-10.206-14.353-11.265-13.578-12.138-12.621-13.013-11.663-13.681-10.581-14.141-9.376-14.602-8.17-14.831-6.95-14.831-5.718-14.831-4.207-14.583-2.811-14.086-1.533-13.588-.253-12.894 .851-12.001 1.782-11.108 2.712-10.035 3.435-8.783 3.949-7.531 4.464-6.15 4.724-4.64 4.724-3.351 4.724-2.085 4.476-.842 3.979 .401 3.48 1.417 2.716 2.21 1.685Z" fill="#165fad"/>
<path transform="matrix(1,0,0,-1,652.8944,349.4849)" d="M0 0-3.646 8.976H-3.701L-7.402 0ZM-4.75 12.402H-2.347L6.021-7.154H2.928L.966-2.321H-8.34L-10.274-7.154H-13.368Z" fill="#165fad"/>
<path transform="matrix(1,0,0,-1,663.0582,339.5695)" d="M0 0H-6.297V2.486H8.949V0H2.652V-17.069H0Z" fill="#165fad"/>
<path transform="matrix(1,0,0,-1,0,385.775)" d="M674.879 48.692H677.53V29.137001H674.879Z" fill="#165fad"/>
<path transform="matrix(1,0,0,-1,691.5882,354.6492)" d="M0 0C1.123 0 2.136 .205 3.038 .621 3.94 1.034 4.714 1.592 5.359 2.292 6.003 2.992 6.5 3.814 6.85 4.762 7.199 5.711 7.375 6.72 7.375 7.788 7.375 8.856 7.199 9.863 6.85 10.812 6.5 11.76 6.003 12.584 5.359 13.284 4.714 13.984 3.94 14.54 3.038 14.955 2.136 15.369 1.123 15.576 0 15.576-1.123 15.576-2.136 15.369-3.038 14.955-3.94 14.54-4.714 13.984-5.357 13.284-6.002 12.584-6.5 11.76-6.849 10.812-7.199 9.863-7.374 8.856-7.374 7.788-7.374 6.72-7.199 5.711-6.849 4.762-6.5 3.814-6.002 2.992-5.357 2.292-4.714 1.592-3.94 1.034-3.038 .621-2.136 .205-1.123 0 0 0M0-2.486C-1.491-2.486-2.863-2.224-4.115-1.7-5.367-1.174-6.44-.452-7.332 .47-8.226 1.389-8.925 2.475-9.432 3.728-9.938 4.979-10.191 6.334-10.191 7.788-10.191 9.242-9.938 10.595-9.432 11.848-8.925 13.099-8.226 14.185-7.332 15.107-6.44 16.028-5.367 16.751-4.115 17.275-2.863 17.801-1.491 18.063 0 18.063 1.492 18.063 2.863 17.801 4.115 17.275 5.368 16.751 6.44 16.028 7.333 15.107 8.226 14.185 8.925 13.099 9.432 11.848 9.938 10.595 10.192 9.242 10.192 7.788 10.192 6.334 9.938 4.979 9.432 3.728 8.925 2.475 8.226 1.389 7.333 .47 6.44-.452 5.368-1.174 4.115-1.7 2.863-2.224 1.492-2.486 0-2.486" fill="#165fad"/>
<path transform="matrix(1,0,0,-1,705.6461,337.0834)" d="M0 0H3.48L14.252-16.075H14.306V0H16.958V-19.555H13.588L2.706-3.482H2.651V-19.555H0Z" fill="#165fad"/>
<path transform="matrix(1,0,0,-1,728.2667,352.5514)" d="M0 0C.479-.718 1.091-1.246 1.836-1.587 2.582-1.928 3.351-2.098 4.143-2.098 4.584-2.098 5.036-2.03 5.496-1.892 5.956-1.752 6.375-1.547 6.753-1.269 7.13-.994 7.438-.653 7.678-.248 7.917 .156 8.037 .625 8.037 1.161 8.037 1.915 7.797 2.491 7.319 2.886 6.84 3.283 6.246 3.613 5.537 3.882 4.828 4.148 4.054 4.406 3.218 4.654 2.379 4.902 1.606 5.248 .898 5.69 .189 6.131-.405 6.725-.884 7.472-1.363 8.217-1.602 9.224-1.602 10.496-1.602 11.067-1.478 11.674-1.23 12.318-.981 12.964-.589 13.551-.055 14.086 .479 14.619 1.164 15.066 2.002 15.425 2.84 15.784 3.848 15.965 5.027 15.965 6.094 15.965 7.116 15.816 8.092 15.522 9.067 15.229 9.924 14.628 10.661 13.727L8.506 11.767C8.175 12.282 7.706 12.695 7.098 13.009 6.49 13.323 5.8 13.479 5.027 13.479 4.289 13.479 3.677 13.382 3.19 13.19 2.702 12.995 2.31 12.747 2.015 12.442 1.721 12.14 1.514 11.812 1.394 11.462 1.275 11.112 1.215 10.789 1.215 10.496 1.215 9.667 1.454 9.032 1.933 8.59 2.412 8.147 3.006 7.788 3.715 7.513 4.424 7.237 5.196 6.989 6.035 6.768 6.873 6.546 7.646 6.237 8.355 5.842 9.063 5.447 9.657 4.911 10.135 4.241 10.614 3.568 10.854 2.642 10.854 1.463 10.854 .526 10.674-.323 10.315-1.077 9.956-1.831 9.473-2.468 8.865-2.983 8.258-3.498 7.54-3.893 6.711-4.171 5.882-4.446 4.998-4.584 4.06-4.584 2.807-4.584 1.62-4.363 .497-3.922-.627-3.48-1.52-2.798-2.182-1.879Z" fill="#165fad"/>
<path transform="matrix(1,0,0,-1,0,385.775)" d="M748.346 34.66H741.551V36.981H748.346Z" fill="#165fad"/>
<path transform="matrix(1,0,0,-1,755.9669,339.5695)" d="M0 0H-6.297V2.486H8.949V0H2.652V-17.069H0Z" fill="#165fad"/>
<path transform="matrix(1,0,0,-1,0,385.775)" d="M767.788 48.692H770.439V29.137001H767.788Z" fill="#165fad"/>
<path transform="matrix(1,0,0,-1,789.1384,341.3105)" d="M0 0C-.552 .718-1.252 1.271-2.099 1.657-2.947 2.044-3.821 2.238-4.723 2.238-5.828 2.238-6.826 2.03-7.719 1.617-8.612 1.201-9.377 .637-10.012-.081-10.647-.799-11.14-1.644-11.489-2.61-11.839-3.577-12.014-4.611-12.014-5.718-12.014-6.747-11.848-7.723-11.517-8.644-11.185-9.565-10.707-10.376-10.081-11.074-9.456-11.774-8.691-12.327-7.788-12.731-6.887-13.138-5.864-13.339-4.723-13.339-3.601-13.339-2.615-13.111-1.768-12.65-.921-12.189-.203-11.543 .386-10.715L2.624-12.402C2.476-12.603 2.219-12.894 1.851-13.271 1.481-13.648 .995-14.025 .386-14.402-.221-14.779-.953-15.111-1.809-15.398-2.666-15.683-3.656-15.825-4.778-15.825-6.325-15.825-7.719-15.531-8.962-14.942-10.206-14.353-11.265-13.578-12.138-12.621-13.013-11.663-13.681-10.581-14.141-9.376-14.602-8.17-14.831-6.95-14.831-5.718-14.831-4.207-14.583-2.811-14.086-1.533-13.588-.253-12.894 .851-12.001 1.782-11.108 2.712-10.035 3.435-8.783 3.949-7.531 4.464-6.15 4.724-4.64 4.724-3.351 4.724-2.085 4.476-.842 3.979 .401 3.48 1.417 2.716 2.21 1.685Z" fill="#165fad"/>
<path transform="matrix(1,0,0,-1,154.7459,82.526889)" d="M0 0C7.204-.005 12.569 5.521 12.527 12.904 12.485 20.254 7.051 25.72-.161 25.666-7.258 25.612-13.136 19.962-13.282 13.051-13.434 5.897-7.437 .006 0 0" fill="#f68631"/>
<path transform="matrix(1,0,0,-1,181.2837,67.38968)" d="M0 0C6.653-.025 11.862 5.29 11.829 12.069 11.796 18.725 6.306 24.138-.238 23.966-6.919 23.791-12.215 18.392-12.152 11.821-12.09 5.243-6.725 .025 0 0" fill="#f68631"/>
<path transform="matrix(1,0,0,-1,130.0859,99.268009)" d="M0 0C6.86-.077 11.858 4.964 11.791 11.896 11.726 18.747 6.532 23.995-.085 23.897-6.576 23.8-12.105 18.253-12.139 11.803-12.174 5.28-6.823 .077 0 0" fill="#f68631"/>
<path transform="matrix(1,0,0,-1,198.3529,44.794404)" d="M0 0C-.037-6.187 5.003-11.212 11.243-11.211 17.254-11.211 21.909-6.547 22.077-.356 22.245 5.815 17.737 10.585 11.604 10.727 5.121 10.879 .037 6.178 0 0" fill="#f68631"/>
<path transform="matrix(1,0,0,-1,97.1129,108.621)" d="M0 0C.092-6.183 5.237-10.842 11.713-10.608 17.867-10.386 22.284-5.612 22.068 .586 21.852 6.78 17.169 11.39 11.137 11.347 4.937 11.303-.092 6.179 0 0" fill="#f68631"/>
<path transform="matrix(1,0,0,-1,239.2603,28.330597)" d="M0 0C-5.489 .164-10.293-4.273-10.473-9.673-10.665-15.452-6.069-20.239-.301-20.268 5.233-20.296 9.631-15.936 9.772-10.284 9.911-4.7 5.604-.167 0 0" fill="#f68631"/>
<path transform="matrix(1,0,0,-1,89.2371,142.0083)" d="M0 0C5.761-.126 10.225 4.007 10.366 9.597 10.505 15.113 6.173 19.949 .826 20.246-4.771 20.558-9.782 15.808-9.876 10.102-9.968 4.478-5.713 .125 0 0" fill="#f68631"/>
<path transform="matrix(1,0,0,-1,180.7781,121.156009)" d="M0 0C5.205 .025 9.535 4.367 9.7 9.724 9.873 15.356 5.495 19.884-.101 19.862-5.712 19.84-10.237 15.404-10.234 9.928-10.231 4.568-5.495-.027 0 0" fill="#f68631"/>
<path transform="matrix(1,0,0,-1,65.0734,158.00249)" d="M0 0C-.053-5.264 3.811-9.173 9.075-9.18 14.276-9.186 18.302-5.187 18.251-.065 18.199 5.074 14.133 9.248 9.146 9.28 4.168 9.313 .052 5.136 0 0" fill="#f68631"/>
<path transform="matrix(1,0,0,-1,259.8572,36.1727)" d="M0 0C.094-5.047 4.35-9.302 9.27-9.267 14.181-9.233 18.345-4.926 18.364 .138 18.383 5.241 14.268 9.316 9.132 9.28 4.035 9.244-.094 5.048 0 0" fill="#f68631"/>
<path transform="matrix(1,0,0,-1,201.0897,91.08569)" d="M0 0C-5.207-.046-9.224-4.005-9.225-9.092-9.225-14.187-5.23-18.174-.041-18.256 5.178-18.339 8.985-14.504 9.023-9.124 9.061-3.759 5.298 .047 0 0" fill="#f68631"/>
<path transform="matrix(1,0,0,-1,152.5436,124.9371)" d="M0 0C.016-5.014 4.193-9.113 9.299-9.124 14.394-9.134 18.31-5.031 18.233 .241 18.158 5.454 14.041 9.579 9.063 9.428 4.04 9.276-.016 5.057 0 0" fill="#f68631"/>
<path transform="matrix(1,0,0,-1,144.7748,149.3767)" d="M0 0C4.709-.119 8.46 3.463 8.561 8.174 8.663 12.931 5.154 16.824 .587 17.021-4.203 17.228-8.356 13.257-8.384 8.442-8.411 3.863-4.692 .118 0 0" fill="#f68631"/>
<path transform="matrix(1,0,0,-1,222.7445,100.62198)" d="M0 0C4.615-.127 8.374 3.478 8.55 8.201 8.727 12.97 5.291 16.756 .614 16.945-4.135 17.136-8.032 13.721-8.303 9.13-8.595 4.192-4.905 .135 0 0" fill="#f68631"/>
<path transform="matrix(1,0,0,-1,54.2523,186.1769)" d="M0 0C.108-4.668 3.893-8.07 8.728-7.844 13.298-7.63 16.55-4.241 16.511 .266 16.471 4.867 12.611 8.751 8.155 8.673 3.716 8.595-.105 4.531 0 0" fill="#f68631"/>
<path transform="matrix(1,0,0,-1,290.9006,37.787294)" d="M0 0C-.005-4.655 3.737-8.362 8.376-8.299 13.056-8.235 16.607-4.529 16.521 .202 16.442 4.543 12.898 8.083 8.493 8.22 3.908 8.362 .005 4.585 0 0" fill="#f68631"/>
<path transform="matrix(1,0,0,-1,138.2878,159.0784)" d="M0 0C-.102 4.424-3.955 8.097-8.183 7.801-12.248 7.516-15.646 3.904-15.651-.135-15.657-4.42-11.743-8.099-7.426-7.866-3.249-7.639 .094-4.099 0 0" fill="#f68631"/>
<path transform="matrix(1,0,0,-1,245.4313,79.486087)" d="M0 0C-4.282-.097-7.662-3.379-7.701-7.478-7.743-11.775-3.996-15.547 .264-15.498 4.575-15.449 8.024-11.683 7.857-7.208 7.699-2.942 4.383 .099 0 0" fill="#f68631"/>
<path transform="matrix(1,0,0,-1,62.1372,215.08249)" d="M0 0C-.034 4.009-3.19 7.251-7.166 7.358-11.39 7.472-14.682 4.041-14.551-.337-14.431-4.329-11.051-7.556-7.148-7.406-3.18-7.253 .033-3.925 0 0" fill="#f68631"/>
<path transform="matrix(1,0,0,-1,328.8307,36.496095)" d="M0 0C-4.1 .029-7.333-3.039-7.413-7.036-7.492-10.989-4.301-14.35-.349-14.475 3.921-14.611 7.458-11.232 7.408-7.067 7.36-3.145 4.094-.029 0 0" fill="#f68631"/>
<path transform="matrix(1,0,0,-1,275.7482,85.22809)" d="M0 0C.01 4.094-3.033 6.98-7.237 6.864-11.052 6.759-14.003 3.853-14.058 .147-14.117-3.776-10.906-7.161-7.075-7.214-3.22-7.268-.009-3.995 0 0" fill="#f68631"/>
<path transform="matrix(1,0,0,-1,118.9207,186.1808)" d="M0 0C4.023 .129 7.183 3.512 6.877 7.363 6.559 11.376 3.245 14.273-.745 14.025-4.408 13.797-7.304 10.668-7.311 6.931-7.318 2.98-4.037-.13 0 0" fill="#f68631"/>
<path transform="matrix(1,0,0,-1,44.8764,245.67049)" d="M0 0C.312-3.596 3.464-6.24 6.904-5.793 10.439-5.333 13.105-2.117 12.725 1.228 12.334 4.677 9.078 7.365 5.682 7.043 2.168 6.711-.315 3.633 0 0" fill="#f68631"/>
<path transform="matrix(1,0,0,-1,357.0717,59.824586)" d="M0 0C3.55-.127 6.589 2.558 6.81 6.016 7.023 9.335 4.109 12.52 .654 12.748-2.867 12.98-5.82 10.283-5.992 6.677-6.167 3.001-3.588 .128 0 0" fill="#f68631"/>
<path transform="matrix(1,0,0,-1,109.4347,194.2024)" d="M0 0C-3.462-.204-6.191-3.355-5.977-6.9-5.759-10.488-2.727-13.004 .958-12.655 4.355-12.332 6.77-9.62 6.659-6.253 6.543-2.771 3.38 .199 0 0" fill="#f68631"/>
<path transform="matrix(1,0,0,-1,291.7324,80.27231)" d="M0 0C-3.567-.153-6.277-3.178-6.051-6.755-5.824-10.356-2.793-12.971 .8-12.665 4.064-12.387 6.608-9.581 6.597-6.272 6.585-2.805 3.478 .149 0 0" fill="#f68631"/>
<path transform="matrix(1,0,0,-1,216.4025,161.9316)" d="M0 0C-3.367 .112-6.137-2.346-6.283-5.576-6.422-8.665-3.634-11.495-.376-11.571 2.867-11.647 5.569-8.915 5.502-5.627 5.439-2.503 3.092-.103 0 0" fill="#f68631"/>
<path transform="matrix(1,0,0,-1,104.0511,228.7874)" d="M0 0C2.981 .173 5.608 3.005 5.456 5.883 5.295 8.942 2.695 11.288-.451 11.212-3.634 11.135-5.895 8.682-5.783 5.428-5.676 2.309-3.028-.176 0 0" fill="#f68631"/>
<path transform="matrix(1,0,0,-1,314.6795,85.5488)" d="M0 0C-3.095-.03-5.555-2.571-5.492-5.67-5.428-8.856-3.02-11.177 .164-11.122 3.354-11.067 5.697-8.669 5.657-5.498 5.618-2.385 3.133 .031 0 0" fill="#f68631"/>
<path transform="matrix(1,0,0,-1,222.7153,160.88849)" d="M0 0C-.181-2.885 2.544-5.73 5.528-5.773 8.231-5.811 10.734-3.394 10.912-.57 11.092 2.275 8.926 4.819 6.109 5.07 3.01 5.346 .188 3.004 0 0" fill="#f68631"/>
<path transform="matrix(1,0,0,-1,205.1562,181.1366)" d="M0 0C2.897 .095 5.014 2.343 5.025 5.337 5.037 8.532 2.488 11.032-.546 10.802-3.406 10.585-5.597 8.269-5.645 5.41-5.698 2.3-3.189-.104 0 0" fill="#f68631"/>
<path transform="matrix(1,0,0,-1,195.1666,190.1798)" d="M0 0C2.774 .095 4.645 2.044 4.637 4.831 4.63 7.757 2.215 10.154-.497 9.925-2.975 9.716-5.191 7.413-5.284 4.949-5.388 2.226-2.905-.1 0 0" fill="#f68631"/>
<path transform="matrix(1,0,0,-1,236.2308,156.17549)" d="M0 0C-.074-2.956 2.1-5.165 5.044-5.127 7.585-5.094 9.811-2.952 9.959-.398 10.116 2.304 7.601 4.801 4.816 4.709 2.085 4.619 .066 2.644 0 0" fill="#f68631"/>
<path transform="matrix(1,0,0,-1,331.8499,98.53409)" d="M0 0C-.085-2.511 2.079-4.924 4.584-5.114 7.069-5.301 9.526-3.173 9.744-.645 9.996 2.287 7.801 4.724 4.905 4.725 2.264 4.727 .089 2.632 0 0" fill="#f68631"/>
<path transform="matrix(1,0,0,-1,96.0302,246.4207)" d="M0 0C.162-2.647 2.365-4.65 5.026-4.568 7.987-4.478 10.18-2.02 9.827 .812 9.507 3.375 7.128 5.305 4.527 5.112 1.966 4.923-.155 2.527 0 0" fill="#f68631"/>
<path transform="matrix(1,0,0,-1,250.1347,153.17099)" d="M0 0C-.092-2.623 2.037-4.925 4.533-4.902 6.771-4.881 8.808-2.885 8.994-.531 9.2 2.089 7.112 4.292 4.448 4.268 2.023 4.245 .083 2.385 0 0" fill="#f68631"/>
<path transform="matrix(1,0,0,-1,186.5352,191.48279)" d="M0 0C-2.46 .095-4.674-2.167-4.664-4.764-4.655-7.149-2.796-9.002-.328-9.086 2.173-9.172 4.125-7.484 4.294-5.088 4.481-2.454 2.49-.096 0 0" fill="#f68631"/>
<path transform="matrix(1,0,0,-1,268.1608,156.49629)" d="M0 0C2.065-.097 4.076 1.688 4.301 3.816 4.526 5.956 2.892 7.943 .69 8.206-1.771 8.5-3.927 6.622-3.924 4.187-3.92 2.034-2.107 .099 0 0" fill="#f68631"/>
<path transform="matrix(1,0,0,-1,183.4165,208.00659)" d="M0 0C-.03 2.267-1.661 3.995-3.864 4.094-6.33 4.205-8.157 2.286-8.038-.29-7.934-2.52-6.158-4.125-3.884-4.041-1.621-3.958 .03-2.24 0 0" fill="#f68631"/>
<path transform="matrix(1,0,0,-1,282.191,149.4989)" d="M0 0C-1.937 .046-3.689-1.518-3.806-3.397-3.936-5.482-1.934-7.507 .127-7.376 2.047-7.254 3.566-5.576 3.553-3.591 3.54-1.592 2.011-.047 0 0" fill="#f68631"/>
<path transform="matrix(1,0,0,-1,174.335,224.28639)" d="M0 0C2.019 .132 3.567 1.761 3.474 3.656 3.37 5.763 1.215 7.595-.781 7.272-2.65 6.969-4.024 5.154-3.872 3.189-3.719 1.21-2.086-.136 0 0" fill="#f68631"/>
<path transform="matrix(1,0,0,-1,193.0245,142.94029)" d="M0 0C-.089-4.207 3.183-7.618 7.457-7.773 11.631-7.924 15.133-4.566 15.228-.322 15.324 3.93 11.985 7.412 7.786 7.439 3.52 7.467 .089 4.188 0 0" fill="#f68631"/>
<path transform="matrix(1,0,0,-1,209.3816,134.4079)" d="M0 0C-.119-3.944 2.999-7.244 6.951-7.36 10.787-7.472 14.096-4.17 14.118-.209 14.14 3.526 11.22 6.565 7.471 6.711 3.292 6.874 .121 4.025 0 0" fill="#f68631"/>
<path transform="matrix(1,0,0,-1,179.0837,153.62729)" d="M0 0C-.021-3.934 3.224-7.12 7.206-7.078 10.853-7.038 13.936-4.011 14.096-.311 14.27 3.681 11.168 6.985 7.204 7.032 3.14 7.079 .022 4.035 0 0" fill="#f68631"/>
<path transform="matrix(1,0,0,-1,226.5558,128.5871)" d="M0 0C.139-3.315 3.333-6.427 6.644-6.472 10.204-6.521 13.431-3.004 13.171 .639 12.924 4.109 9.723 6.941 6.325 6.696 2.839 6.446-.138 3.294 0 0" fill="#f68631"/>
<path transform="matrix(1,0,0,-1,173.5213,172.3982)" d="M0 0C3.711 .149 6.17 2.833 6.05 6.603 5.931 10.297 3.23 12.937-.382 12.887-4.178 12.834-7.079 9.695-6.837 5.9-6.612 2.384-3.678-.148 0 0" fill="#f68631"/>
<path transform="matrix(1,0,0,-1,156.1888,179.91719)" d="M0 0C-.1-3.325 2.45-6.015 5.772-6.088 9.06-6.16 11.773-3.533 11.81-.24 11.846 3.022 9.158 5.901 6.016 5.965 2.839 6.031 .1 3.314 0 0" fill="#f68631"/>
<path transform="matrix(1,0,0,-1,251.0228,118.7583)" d="M0 0C-3.518 .151-6.192-2.28-6.246-5.679-6.301-9.061-3.673-11.773-.33-11.784 2.997-11.796 5.602-9.111 5.586-5.688 5.57-2.543 3.208-.138 0 0" fill="#f68631"/>
<path transform="matrix(1,0,0,-1,268.6941,128.6576)" d="M0 0C2.934 .094 5.547 3.046 5.285 5.969 5.032 8.778 2.559 10.923-.334 10.841-3.216 10.758-5.574 8.433-5.615 5.633-5.66 2.612-2.962-.095 0 0" fill="#f68631"/>
<path transform="matrix(1,0,0,-1,147.6405,195.50949)" d="M0 0C-.008-2.897 2.182-5.215 5.058-5.352 8.158-5.499 10.758-2.987 10.685 .085 10.616 2.98 8.414 5.314 5.6 5.477 2.572 5.652 .009 3.145 0 0" fill="#f68631"/>
<path transform="matrix(1,0,0,-1,146.1597,207.1473)" d="M0 0C-2.623 .05-4.688-1.927-4.819-4.613-4.952-7.346-3.117-9.427-.432-9.589 2.485-9.764 4.91-7.529 4.819-4.746 4.736-2.193 2.558-.049 0 0" fill="#f68631"/>
<path transform="matrix(1,0,0,-1,281.662,124.22009)" d="M0 0C.018-2.678 2.173-4.912 4.736-4.908 7.298-4.905 9.458-2.671 9.485 .004 9.511 2.635 7.316 4.899 4.732 4.903 2.138 4.908-.018 2.675 0 0" fill="#f68631"/>
<path transform="matrix(1,0,0,-1,299.6888,127.49631)" d="M0 0C-.081-2.453 1.827-4.424 4.269-4.409 6.647-4.395 8.726-2.305 8.634-.021 8.553 2.009 6.685 3.925 4.6 4.117 2.261 4.333 .078 2.38 0 0" fill="#f68631"/>
<path transform="matrix(1,0,0,-1,137.3656,229.2473)" d="M0 0C-.031-2.502 1.812-4.332 4.273-4.243 6.431-4.165 8.254-2.481 8.428-.404 8.622 1.912 6.739 4.014 4.36 4.137 1.87 4.265 .031 2.521 0 0" fill="#f68631"/>
<path transform="matrix(1,0,0,-1,324.6732,133.4495)" d="M0 0C-.031 1.864-1.698 3.568-3.62 3.701-5.737 3.848-7.576 1.885-7.41-.346-7.26-2.36-5.621-3.771-3.572-3.648-1.497-3.525 .033-1.962 0 0" fill="#f68631"/>
<path transform="matrix(1,0,0,-1,139.6007,250.74109)" d="M0 0C2.007 .151 3.433 1.781 3.348 3.827 3.262 5.888 1.733 7.409-.268 7.423-2.37 7.438-4.282 5.307-4.016 3.246-3.772 1.356-1.917-.144 0 0" fill="#f68631"/>
<path transform="matrix(1,0,0,-1,173.8503,234.0326)" d="M0 0C-.076 1.872-1.986 3.537-3.745 3.266-5.321 3.022-6.603 1.376-6.516-.292-6.432-1.911-4.849-3.251-3.141-3.149-1.42-3.047 .063-1.56 0 0" fill="#f68631"/>
<path transform="matrix(1,0,0,-1,295.6108,152.5378)" d="M0 0C-1.634-.038-3.162-1.502-3.255-3.118-3.361-4.948-1.557-6.669 .309-6.518 1.904-6.389 3.268-4.776 3.19-3.113 3.11-1.412 1.624 .038 0 0" fill="#f68631"/>
<path transform="matrix(1,0,0,-1,168.7066,250.5555)" d="M0 0C1.488-.069 2.872 1.165 2.974 2.65 3.07 4.063 1.771 5.551 .348 5.658-1.033 5.761-2.551 4.408-2.647 2.988-2.744 1.544-1.436 .067 0 0" fill="#f68631"/>
<path transform="matrix(1,0,0,-1,308.7929,163.0981)" d="M0 0C1.428 .075 2.657 1.463 2.602 2.939 2.548 4.386 1.126 5.716-.26 5.617-1.733 5.512-2.913 4.173-2.847 2.683-2.78 1.181-1.447-.076 0 0" fill="#f68631"/>
<path transform="matrix(1,0,0,-1,240.7361,259.2199)" d="M0 0H43.856L23.585 37.355C23.245 37.948 22.777 38.247 22.183 38.247H21.418C20.822 38.247 20.354 37.948 20.016 37.355ZM24.733 56.351C27.962 56.351 30.681 55.691 32.892 54.375 35.101 53.056 37.269 50.486 39.394 46.662L81.593-29.96C82.018-30.811 82.123-31.512 81.912-32.063 81.699-32.617 81.083-32.892 80.064-32.892H63.872C62.426-32.892 61.45-32.34 60.94-31.235L51.888-14.789H-8.032L-16.829-31.235C-17.425-32.34-18.403-32.892-19.762-32.892H-36.335C-37.441-32.892-38.1-32.617-38.311-32.063-38.524-31.512-38.419-30.811-37.992-29.96L3.825 46.662C5.947 50.486 8.032 53.056 10.071 54.375 12.111 55.691 14.49 56.351 17.211 56.351Z" fill="#165fad"/>
<path transform="matrix(1,0,0,-1,355.8581,202.8689)" d="M0 0C2.04 0 3.739-.086 5.1-.255 6.458-.426 7.65-.787 8.669-1.339 9.689-1.893 10.665-2.658 11.602-3.634 12.536-4.612 13.598-5.908 14.789-7.522L62.215-69.737C62.554-70.333 63.107-70.63 63.873-70.63H65.02C65.699-70.63 66.04-70.205 66.04-69.355V-2.805C66.04-.936 66.974 0 68.844 0H82.231C84.1 0 85.036-.936 85.036-2.805V-75.984C85.036-81.169 84.1-84.675 82.231-86.502 80.361-88.331 77.471-89.243 73.562-89.243H62.598C60.641-89.243 59.006-89.159 57.689-88.988 56.37-88.819 55.203-88.478 54.183-87.968 53.163-87.458 52.163-86.716 51.187-85.737 50.209-84.761 49.084-83.423 47.809-81.721L.255-19.506C-.255-18.912-.809-18.614-1.402-18.614H-2.55C-3.231-18.614-3.57-19.04-3.57-19.889V-86.438C-3.57-88.309-4.506-89.243-6.375-89.243H-19.761C-21.717-89.243-22.693-88.309-22.693-86.438V-13.259C-22.693-8.076-21.759-4.57-19.889-2.741-18.02-.915-15.129 0-11.219 0Z" fill="#165fad"/>
<path transform="matrix(1,0,0,-1,546.4551,202.8689)" d="M0 0C1.869 0 2.806-.936 2.806-2.805V-14.917C2.806-16.787 1.869-17.721 0-17.721H-63.872C-66.338-17.721-68.079-18.359-69.099-19.634-70.119-20.908-70.629-22.651-70.629-24.861V-29.196C-70.629-33.957-68.42-36.335-64-36.335H-16.19C-8.796-36.335-3.23-38.227 .511-42.008 4.249-45.791 6.12-51.209 6.12-58.263V-68.462C6.12-74.667 4.291-79.681 .637-83.506-3.017-87.331-8.712-89.243-16.445-89.243H-87.076C-89.032-89.243-90.007-88.309-90.007-86.438V-74.327C-90.007-72.458-89.032-71.522-87.076-71.522H-20.143C-17.678-71.522-15.936-70.885-14.916-69.61-13.896-68.335-13.386-66.594-13.386-64.383V-59.155C-13.386-54.397-15.597-52.016-20.015-52.016H-67.824C-75.219-52.016-80.786-50.126-84.525-46.343-88.267-42.562-90.135-37.144-90.135-30.088V-20.781C-90.135-14.578-88.309-9.562-84.653-5.737-81-1.913-75.304 0-67.569 0Z" fill="#165fad"/>
<path transform="matrix(1,0,0,-1,583.5541,202.8689)" d="M0 0C1.869 0 2.806-.936 2.806-2.805V-53.673C2.806-57.074 3.08-59.9 3.634-62.152 4.185-64.404 5.101-66.189 6.375-67.506 7.65-68.825 9.371-69.759 11.539-70.311 13.706-70.865 16.446-71.14 19.762-71.14H55.076C58.391-71.14 61.132-70.865 63.3-70.311 65.467-69.759 67.187-68.825 68.462-67.506 69.738-66.189 70.63-64.404 71.14-62.152 71.651-59.9 71.905-57.074 71.905-53.673V-2.805C71.905-.936 72.839 0 74.71 0H88.606C90.474 0 91.411-.936 91.411-2.805V-55.586C91.411-61.705 90.773-66.913 89.499-71.203 88.224-75.496 86.163-78.98 83.315-81.657 80.466-84.335 76.77-86.269 72.224-87.458 67.676-88.649 62.172-89.243 55.714-89.243H18.996C12.537-89.243 7.055-88.649 2.55-87.458-1.955-86.269-5.631-84.335-8.477-81.657-11.326-78.98-13.408-75.496-14.725-71.203-16.043-66.913-16.701-61.705-16.701-55.586V-2.805C-16.701-.936-15.724 0-13.769 0Z" fill="#165fad"/>
<path transform="matrix(1,0,0,-1,788.6847,202.8689)" d="M0 0C1.954 0 2.932-.936 2.932-2.805V-15.299C2.932-17.255 1.954-18.231 0-18.231H-40.031V-86.438C-40.031-88.309-40.968-89.243-42.836-89.243H-56.732C-58.603-89.243-59.538-88.309-59.538-86.438V-18.231H-99.57C-101.526-18.231-102.502-17.255-102.502-15.299V-2.805C-102.502-.936-101.526 0-99.57 0Z" fill="#165fad"/>
</g>
</g>
</svg>
